<mxfile host="app.diagrams.net" agent="Mozilla/5.0 (X11; Linux x86_64) AppleWebKit/537.36 (KHTML, like Gecko) Chrome/123.0.0.0 Safari/537.36" modified="2024-08-27T22:51:57.472Z" etag="jYaRFZBOvijDdwcSXtBT" version="23.1.5" type="device">
  <diagram name="PÃ¡gina-1" id="baKFrrojcIGf0r5tR1rH">
    <mxGraphModel dx="2501" dy="1968" grid="1" gridSize="10" guides="1" tooltips="1" connect="1" arrows="1" fold="1" page="1" pageScale="1" pageWidth="827" pageHeight="1169" math="0" shadow="0">
      <root>
        <mxCell id="0" />
        <mxCell id="1" parent="0" />
        <mxCell id="3sivGQ6sU_AV5dyqDpmi-42" style="edgeStyle=orthogonalEdgeStyle;rounded=0;orthogonalLoop=1;jettySize=auto;html=1;" parent="1" source="3sivGQ6sU_AV5dyqDpmi-1" target="3sivGQ6sU_AV5dyqDpmi-43" edge="1">
          <mxGeometry relative="1" as="geometry">
            <mxPoint x="870" y="320" as="targetPoint" />
          </mxGeometry>
        </mxCell>
        <mxCell id="3sivGQ6sU_AV5dyqDpmi-160" style="edgeStyle=orthogonalEdgeStyle;rounded=0;orthogonalLoop=1;jettySize=auto;html=1;entryX=0;entryY=0.5;entryDx=0;entryDy=0;" parent="1" source="3sivGQ6sU_AV5dyqDpmi-1" target="3sivGQ6sU_AV5dyqDpmi-155" edge="1">
          <mxGeometry relative="1" as="geometry" />
        </mxCell>
        <mxCell id="3sivGQ6sU_AV5dyqDpmi-162" style="edgeStyle=orthogonalEdgeStyle;rounded=0;orthogonalLoop=1;jettySize=auto;html=1;entryX=0;entryY=0.5;entryDx=0;entryDy=0;" parent="1" source="3sivGQ6sU_AV5dyqDpmi-1" target="3sivGQ6sU_AV5dyqDpmi-157" edge="1">
          <mxGeometry relative="1" as="geometry" />
        </mxCell>
        <mxCell id="3sivGQ6sU_AV5dyqDpmi-163" style="edgeStyle=orthogonalEdgeStyle;rounded=0;orthogonalLoop=1;jettySize=auto;html=1;entryX=0;entryY=0.5;entryDx=0;entryDy=0;" parent="1" source="3sivGQ6sU_AV5dyqDpmi-1" target="3sivGQ6sU_AV5dyqDpmi-158" edge="1">
          <mxGeometry relative="1" as="geometry" />
        </mxCell>
        <mxCell id="3sivGQ6sU_AV5dyqDpmi-1" value="&lt;span style=&quot;font-size: 30px;&quot;&gt;item&lt;/span&gt;" style="html=1;whiteSpace=wrap;" parent="1" vertex="1">
          <mxGeometry x="880" y="150" width="200" height="120" as="geometry" />
        </mxCell>
        <mxCell id="3sivGQ6sU_AV5dyqDpmi-83" style="edgeStyle=orthogonalEdgeStyle;rounded=0;orthogonalLoop=1;jettySize=auto;html=1;entryX=0.5;entryY=0;entryDx=0;entryDy=0;" parent="1" source="3sivGQ6sU_AV5dyqDpmi-2" target="3sivGQ6sU_AV5dyqDpmi-82" edge="1">
          <mxGeometry relative="1" as="geometry" />
        </mxCell>
        <mxCell id="3sivGQ6sU_AV5dyqDpmi-99" style="edgeStyle=orthogonalEdgeStyle;rounded=0;orthogonalLoop=1;jettySize=auto;html=1;entryX=1;entryY=0.5;entryDx=0;entryDy=0;" parent="1" source="3sivGQ6sU_AV5dyqDpmi-2" target="3sivGQ6sU_AV5dyqDpmi-96" edge="1">
          <mxGeometry relative="1" as="geometry" />
        </mxCell>
        <mxCell id="3sivGQ6sU_AV5dyqDpmi-100" style="edgeStyle=orthogonalEdgeStyle;rounded=0;orthogonalLoop=1;jettySize=auto;html=1;entryX=1;entryY=0.5;entryDx=0;entryDy=0;" parent="1" source="3sivGQ6sU_AV5dyqDpmi-2" target="3sivGQ6sU_AV5dyqDpmi-97" edge="1">
          <mxGeometry relative="1" as="geometry" />
        </mxCell>
        <mxCell id="3sivGQ6sU_AV5dyqDpmi-103" style="edgeStyle=orthogonalEdgeStyle;rounded=0;orthogonalLoop=1;jettySize=auto;html=1;entryX=1;entryY=0.5;entryDx=0;entryDy=0;" parent="1" source="3sivGQ6sU_AV5dyqDpmi-2" target="3sivGQ6sU_AV5dyqDpmi-102" edge="1">
          <mxGeometry relative="1" as="geometry" />
        </mxCell>
        <mxCell id="3sivGQ6sU_AV5dyqDpmi-2" value="&lt;span style=&quot;font-size: 24px;&quot;&gt;funcionario&lt;/span&gt;" style="html=1;whiteSpace=wrap;" parent="1" vertex="1">
          <mxGeometry x="-160" y="125" width="160" height="115" as="geometry" />
        </mxCell>
        <mxCell id="3sivGQ6sU_AV5dyqDpmi-86" style="edgeStyle=orthogonalEdgeStyle;rounded=0;orthogonalLoop=1;jettySize=auto;html=1;entryX=0.5;entryY=1;entryDx=0;entryDy=0;" parent="1" source="3sivGQ6sU_AV5dyqDpmi-6" target="3sivGQ6sU_AV5dyqDpmi-81" edge="1">
          <mxGeometry relative="1" as="geometry" />
        </mxCell>
        <mxCell id="3sivGQ6sU_AV5dyqDpmi-107" style="edgeStyle=orthogonalEdgeStyle;rounded=0;orthogonalLoop=1;jettySize=auto;html=1;entryX=0.5;entryY=0;entryDx=0;entryDy=0;" parent="1" source="3sivGQ6sU_AV5dyqDpmi-6" target="3sivGQ6sU_AV5dyqDpmi-104" edge="1">
          <mxGeometry relative="1" as="geometry" />
        </mxCell>
        <mxCell id="3sivGQ6sU_AV5dyqDpmi-108" style="edgeStyle=orthogonalEdgeStyle;rounded=0;orthogonalLoop=1;jettySize=auto;html=1;entryX=0.5;entryY=0;entryDx=0;entryDy=0;" parent="1" source="3sivGQ6sU_AV5dyqDpmi-6" target="3sivGQ6sU_AV5dyqDpmi-105" edge="1">
          <mxGeometry relative="1" as="geometry" />
        </mxCell>
        <mxCell id="3sivGQ6sU_AV5dyqDpmi-109" style="edgeStyle=orthogonalEdgeStyle;rounded=0;orthogonalLoop=1;jettySize=auto;html=1;entryX=0.5;entryY=0;entryDx=0;entryDy=0;" parent="1" source="3sivGQ6sU_AV5dyqDpmi-6" target="3sivGQ6sU_AV5dyqDpmi-106" edge="1">
          <mxGeometry relative="1" as="geometry" />
        </mxCell>
        <mxCell id="3sivGQ6sU_AV5dyqDpmi-6" value="&lt;font style=&quot;font-size: 20px;&quot;&gt;fornecedor&lt;/font&gt;" style="html=1;whiteSpace=wrap;" parent="1" vertex="1">
          <mxGeometry x="-145" y="770" width="110" height="50" as="geometry" />
        </mxCell>
        <mxCell id="3sivGQ6sU_AV5dyqDpmi-113" style="edgeStyle=orthogonalEdgeStyle;rounded=0;orthogonalLoop=1;jettySize=auto;html=1;entryX=1;entryY=0.5;entryDx=0;entryDy=0;" parent="1" source="3sivGQ6sU_AV5dyqDpmi-7" target="3sivGQ6sU_AV5dyqDpmi-112" edge="1">
          <mxGeometry relative="1" as="geometry" />
        </mxCell>
        <mxCell id="3sivGQ6sU_AV5dyqDpmi-114" style="edgeStyle=orthogonalEdgeStyle;rounded=0;orthogonalLoop=1;jettySize=auto;html=1;entryX=0;entryY=0.5;entryDx=0;entryDy=0;" parent="1" source="3sivGQ6sU_AV5dyqDpmi-7" target="3sivGQ6sU_AV5dyqDpmi-111" edge="1">
          <mxGeometry relative="1" as="geometry" />
        </mxCell>
        <mxCell id="3sivGQ6sU_AV5dyqDpmi-115" style="edgeStyle=orthogonalEdgeStyle;rounded=0;orthogonalLoop=1;jettySize=auto;html=1;entryX=0;entryY=0.5;entryDx=0;entryDy=0;" parent="1" source="3sivGQ6sU_AV5dyqDpmi-7" target="3sivGQ6sU_AV5dyqDpmi-110" edge="1">
          <mxGeometry relative="1" as="geometry" />
        </mxCell>
        <mxCell id="3sivGQ6sU_AV5dyqDpmi-7" value="&lt;span style=&quot;font-size: 20px;&quot;&gt;cliente&lt;/span&gt;" style="html=1;whiteSpace=wrap;" parent="1" vertex="1">
          <mxGeometry x="335" y="-110" width="110" height="50" as="geometry" />
        </mxCell>
        <mxCell id="3sivGQ6sU_AV5dyqDpmi-15" value="&lt;font style=&quot;font-size: 20px;&quot;&gt;(1..n)&lt;/font&gt;" style="text;html=1;align=center;verticalAlign=middle;whiteSpace=wrap;rounded=0;" parent="1" vertex="1">
          <mxGeometry x="450" y="150" width="60" height="30" as="geometry" />
        </mxCell>
        <mxCell id="3sivGQ6sU_AV5dyqDpmi-17" value="&lt;font style=&quot;font-size: 20px;&quot;&gt;(1..n)&lt;/font&gt;" style="text;html=1;align=center;verticalAlign=middle;whiteSpace=wrap;rounded=0;" parent="1" vertex="1">
          <mxGeometry x="250" y="140" width="60" height="30" as="geometry" />
        </mxCell>
        <mxCell id="3sivGQ6sU_AV5dyqDpmi-24" value="&lt;font style=&quot;font-size: 20px;&quot;&gt;(1..n)&lt;/font&gt;" style="text;html=1;align=center;verticalAlign=middle;whiteSpace=wrap;rounded=0;" parent="1" vertex="1">
          <mxGeometry x="400" y="110" width="60" height="30" as="geometry" />
        </mxCell>
        <mxCell id="3sivGQ6sU_AV5dyqDpmi-148" style="edgeStyle=orthogonalEdgeStyle;rounded=0;orthogonalLoop=1;jettySize=auto;html=1;" parent="1" source="3sivGQ6sU_AV5dyqDpmi-25" target="3sivGQ6sU_AV5dyqDpmi-145" edge="1">
          <mxGeometry relative="1" as="geometry" />
        </mxCell>
        <mxCell id="3sivGQ6sU_AV5dyqDpmi-149" style="edgeStyle=orthogonalEdgeStyle;rounded=0;orthogonalLoop=1;jettySize=auto;html=1;entryX=0;entryY=0.5;entryDx=0;entryDy=0;" parent="1" source="3sivGQ6sU_AV5dyqDpmi-25" target="3sivGQ6sU_AV5dyqDpmi-146" edge="1">
          <mxGeometry relative="1" as="geometry" />
        </mxCell>
        <mxCell id="3sivGQ6sU_AV5dyqDpmi-150" style="edgeStyle=orthogonalEdgeStyle;rounded=0;orthogonalLoop=1;jettySize=auto;html=1;entryX=0;entryY=0.5;entryDx=0;entryDy=0;" parent="1" source="3sivGQ6sU_AV5dyqDpmi-25" target="3sivGQ6sU_AV5dyqDpmi-142" edge="1">
          <mxGeometry relative="1" as="geometry" />
        </mxCell>
        <mxCell id="3sivGQ6sU_AV5dyqDpmi-151" style="edgeStyle=orthogonalEdgeStyle;rounded=0;orthogonalLoop=1;jettySize=auto;html=1;entryX=1;entryY=0.5;entryDx=0;entryDy=0;" parent="1" source="3sivGQ6sU_AV5dyqDpmi-25" target="3sivGQ6sU_AV5dyqDpmi-144" edge="1">
          <mxGeometry relative="1" as="geometry" />
        </mxCell>
        <mxCell id="3sivGQ6sU_AV5dyqDpmi-152" style="edgeStyle=orthogonalEdgeStyle;rounded=0;orthogonalLoop=1;jettySize=auto;html=1;entryX=1;entryY=0.5;entryDx=0;entryDy=0;" parent="1" source="3sivGQ6sU_AV5dyqDpmi-25" target="3sivGQ6sU_AV5dyqDpmi-143" edge="1">
          <mxGeometry relative="1" as="geometry" />
        </mxCell>
        <mxCell id="zJOguSmQNDVReDXdNDli-2" style="edgeStyle=orthogonalEdgeStyle;rounded=0;orthogonalLoop=1;jettySize=auto;html=1;entryX=1;entryY=0.5;entryDx=0;entryDy=0;" parent="1" source="3sivGQ6sU_AV5dyqDpmi-25" target="3sivGQ6sU_AV5dyqDpmi-129" edge="1">
          <mxGeometry relative="1" as="geometry" />
        </mxCell>
        <mxCell id="zJOguSmQNDVReDXdNDli-5" style="edgeStyle=orthogonalEdgeStyle;rounded=0;orthogonalLoop=1;jettySize=auto;html=1;entryX=1;entryY=0.5;entryDx=0;entryDy=0;" parent="1" source="3sivGQ6sU_AV5dyqDpmi-25" target="3sivGQ6sU_AV5dyqDpmi-140" edge="1">
          <mxGeometry relative="1" as="geometry" />
        </mxCell>
        <mxCell id="zJOguSmQNDVReDXdNDli-8" style="edgeStyle=orthogonalEdgeStyle;rounded=0;orthogonalLoop=1;jettySize=auto;html=1;entryX=0;entryY=0.5;entryDx=0;entryDy=0;" parent="1" source="3sivGQ6sU_AV5dyqDpmi-25" target="zJOguSmQNDVReDXdNDli-6" edge="1">
          <mxGeometry relative="1" as="geometry" />
        </mxCell>
        <mxCell id="3sivGQ6sU_AV5dyqDpmi-25" value="&lt;font style=&quot;font-size: 18px;&quot;&gt;compra&lt;/font&gt;" style="html=1;whiteSpace=wrap;" parent="1" vertex="1">
          <mxGeometry x="335" y="158" width="110" height="50" as="geometry" />
        </mxCell>
        <mxCell id="3sivGQ6sU_AV5dyqDpmi-30" style="edgeStyle=orthogonalEdgeStyle;rounded=0;orthogonalLoop=1;jettySize=auto;html=1;" parent="1" source="3sivGQ6sU_AV5dyqDpmi-29" target="3sivGQ6sU_AV5dyqDpmi-25" edge="1">
          <mxGeometry relative="1" as="geometry" />
        </mxCell>
        <mxCell id="3sivGQ6sU_AV5dyqDpmi-31" style="edgeStyle=orthogonalEdgeStyle;rounded=0;orthogonalLoop=1;jettySize=auto;html=1;entryX=0;entryY=0.5;entryDx=0;entryDy=0;" parent="1" source="3sivGQ6sU_AV5dyqDpmi-29" target="3sivGQ6sU_AV5dyqDpmi-1" edge="1">
          <mxGeometry relative="1" as="geometry" />
        </mxCell>
        <mxCell id="3sivGQ6sU_AV5dyqDpmi-182" style="edgeStyle=orthogonalEdgeStyle;rounded=0;orthogonalLoop=1;jettySize=auto;html=1;entryX=0.5;entryY=1;entryDx=0;entryDy=0;" parent="1" source="3sivGQ6sU_AV5dyqDpmi-29" target="3sivGQ6sU_AV5dyqDpmi-153" edge="1">
          <mxGeometry relative="1" as="geometry" />
        </mxCell>
        <mxCell id="3sivGQ6sU_AV5dyqDpmi-184" style="edgeStyle=orthogonalEdgeStyle;rounded=0;orthogonalLoop=1;jettySize=auto;html=1;" parent="1" source="3sivGQ6sU_AV5dyqDpmi-29" target="3sivGQ6sU_AV5dyqDpmi-154" edge="1">
          <mxGeometry relative="1" as="geometry" />
        </mxCell>
        <mxCell id="3sivGQ6sU_AV5dyqDpmi-186" style="edgeStyle=orthogonalEdgeStyle;rounded=0;orthogonalLoop=1;jettySize=auto;html=1;entryX=0.5;entryY=1;entryDx=0;entryDy=0;" parent="1" source="3sivGQ6sU_AV5dyqDpmi-29" target="3sivGQ6sU_AV5dyqDpmi-179" edge="1">
          <mxGeometry relative="1" as="geometry" />
        </mxCell>
        <mxCell id="3sivGQ6sU_AV5dyqDpmi-189" style="edgeStyle=orthogonalEdgeStyle;rounded=0;orthogonalLoop=1;jettySize=auto;html=1;" parent="1" source="3sivGQ6sU_AV5dyqDpmi-29" target="3sivGQ6sU_AV5dyqDpmi-181" edge="1">
          <mxGeometry relative="1" as="geometry" />
        </mxCell>
        <mxCell id="3sivGQ6sU_AV5dyqDpmi-29" value="&lt;font style=&quot;font-size: 16px;&quot;&gt;item_compra&lt;/font&gt;" style="shape=rhombus;perimeter=rhombusPerimeter;whiteSpace=wrap;html=1;align=center;" parent="1" vertex="1">
          <mxGeometry x="530" y="153" width="120" height="60" as="geometry" />
        </mxCell>
        <mxCell id="3sivGQ6sU_AV5dyqDpmi-37" style="edgeStyle=orthogonalEdgeStyle;rounded=0;orthogonalLoop=1;jettySize=auto;html=1;" parent="1" source="3sivGQ6sU_AV5dyqDpmi-33" target="3sivGQ6sU_AV5dyqDpmi-25" edge="1">
          <mxGeometry relative="1" as="geometry" />
        </mxCell>
        <mxCell id="3sivGQ6sU_AV5dyqDpmi-38" style="edgeStyle=orthogonalEdgeStyle;rounded=0;orthogonalLoop=1;jettySize=auto;html=1;entryX=1;entryY=0.5;entryDx=0;entryDy=0;" parent="1" source="3sivGQ6sU_AV5dyqDpmi-33" target="3sivGQ6sU_AV5dyqDpmi-2" edge="1">
          <mxGeometry relative="1" as="geometry" />
        </mxCell>
        <mxCell id="3sivGQ6sU_AV5dyqDpmi-33" value="&lt;span style=&quot;font-size: 20px;&quot;&gt;realiza&lt;/span&gt;" style="shape=rhombus;perimeter=rhombusPerimeter;whiteSpace=wrap;html=1;align=center;" parent="1" vertex="1">
          <mxGeometry x="110" y="153" width="120" height="60" as="geometry" />
        </mxCell>
        <mxCell id="3sivGQ6sU_AV5dyqDpmi-39" style="edgeStyle=orthogonalEdgeStyle;rounded=0;orthogonalLoop=1;jettySize=auto;html=1;" parent="1" source="3sivGQ6sU_AV5dyqDpmi-34" target="3sivGQ6sU_AV5dyqDpmi-25" edge="1">
          <mxGeometry relative="1" as="geometry" />
        </mxCell>
        <mxCell id="3sivGQ6sU_AV5dyqDpmi-54" style="edgeStyle=orthogonalEdgeStyle;rounded=0;orthogonalLoop=1;jettySize=auto;html=1;entryX=0.5;entryY=1;entryDx=0;entryDy=0;" parent="1" source="3sivGQ6sU_AV5dyqDpmi-34" target="3sivGQ6sU_AV5dyqDpmi-7" edge="1">
          <mxGeometry relative="1" as="geometry" />
        </mxCell>
        <mxCell id="3sivGQ6sU_AV5dyqDpmi-34" value="&lt;span style=&quot;font-size: 20px;&quot;&gt;faz&lt;/span&gt;" style="shape=rhombus;perimeter=rhombusPerimeter;whiteSpace=wrap;html=1;align=center;" parent="1" vertex="1">
          <mxGeometry x="330" y="10" width="120" height="60" as="geometry" />
        </mxCell>
        <mxCell id="3sivGQ6sU_AV5dyqDpmi-178" style="edgeStyle=orthogonalEdgeStyle;rounded=0;orthogonalLoop=1;jettySize=auto;html=1;" parent="1" source="3sivGQ6sU_AV5dyqDpmi-43" target="3sivGQ6sU_AV5dyqDpmi-51" edge="1">
          <mxGeometry relative="1" as="geometry" />
        </mxCell>
        <mxCell id="3sivGQ6sU_AV5dyqDpmi-43" value="" style="triangle;whiteSpace=wrap;html=1;rotation=90;" parent="1" vertex="1">
          <mxGeometry x="950" y="330" width="60" height="80" as="geometry" />
        </mxCell>
        <mxCell id="3sivGQ6sU_AV5dyqDpmi-44" value="&lt;font style=&quot;font-size: 17px;&quot;&gt;(1..1)&lt;/font&gt;" style="text;html=1;align=center;verticalAlign=middle;whiteSpace=wrap;rounded=0;" parent="1" vertex="1">
          <mxGeometry x="390" y="-50" width="60" height="30" as="geometry" />
        </mxCell>
        <mxCell id="3sivGQ6sU_AV5dyqDpmi-45" value="&lt;font style=&quot;font-size: 17px;&quot;&gt;(1..1)&lt;/font&gt;" style="text;html=1;align=center;verticalAlign=middle;whiteSpace=wrap;rounded=0;" parent="1" vertex="1">
          <mxGeometry y="140" width="60" height="30" as="geometry" />
        </mxCell>
        <mxCell id="3sivGQ6sU_AV5dyqDpmi-46" value="&lt;font style=&quot;font-size: 17px;&quot;&gt;(1..n)&lt;/font&gt;" style="text;html=1;align=center;verticalAlign=middle;whiteSpace=wrap;rounded=0;" parent="1" vertex="1">
          <mxGeometry x="710" y="140" width="60" height="30" as="geometry" />
        </mxCell>
        <mxCell id="3sivGQ6sU_AV5dyqDpmi-47" value="&lt;font style=&quot;font-size: 16px;&quot;&gt;ISA&lt;/font&gt;" style="text;html=1;align=center;verticalAlign=middle;whiteSpace=wrap;rounded=0;" parent="1" vertex="1">
          <mxGeometry x="950" y="350" width="60" height="30" as="geometry" />
        </mxCell>
        <mxCell id="3sivGQ6sU_AV5dyqDpmi-168" style="edgeStyle=orthogonalEdgeStyle;rounded=0;orthogonalLoop=1;jettySize=auto;html=1;entryX=1;entryY=0.5;entryDx=0;entryDy=0;" parent="1" source="3sivGQ6sU_AV5dyqDpmi-51" target="3sivGQ6sU_AV5dyqDpmi-164" edge="1">
          <mxGeometry relative="1" as="geometry" />
        </mxCell>
        <mxCell id="3sivGQ6sU_AV5dyqDpmi-169" style="edgeStyle=orthogonalEdgeStyle;rounded=0;orthogonalLoop=1;jettySize=auto;html=1;entryX=1;entryY=0.5;entryDx=0;entryDy=0;" parent="1" source="3sivGQ6sU_AV5dyqDpmi-51" target="3sivGQ6sU_AV5dyqDpmi-166" edge="1">
          <mxGeometry relative="1" as="geometry" />
        </mxCell>
        <mxCell id="3sivGQ6sU_AV5dyqDpmi-171" style="edgeStyle=orthogonalEdgeStyle;rounded=0;orthogonalLoop=1;jettySize=auto;html=1;entryX=1;entryY=0.5;entryDx=0;entryDy=0;" parent="1" source="3sivGQ6sU_AV5dyqDpmi-51" target="3sivGQ6sU_AV5dyqDpmi-167" edge="1">
          <mxGeometry relative="1" as="geometry" />
        </mxCell>
        <mxCell id="3sivGQ6sU_AV5dyqDpmi-172" style="edgeStyle=orthogonalEdgeStyle;rounded=0;orthogonalLoop=1;jettySize=auto;html=1;entryX=1;entryY=0.5;entryDx=0;entryDy=0;" parent="1" source="3sivGQ6sU_AV5dyqDpmi-51" target="3sivGQ6sU_AV5dyqDpmi-170" edge="1">
          <mxGeometry relative="1" as="geometry" />
        </mxCell>
        <mxCell id="3sivGQ6sU_AV5dyqDpmi-51" value="&lt;font style=&quot;font-size: 18px;&quot;&gt;livro&lt;/font&gt;" style="html=1;whiteSpace=wrap;" parent="1" vertex="1">
          <mxGeometry x="925" y="530" width="110" height="50" as="geometry" />
        </mxCell>
        <mxCell id="3sivGQ6sU_AV5dyqDpmi-78" style="edgeStyle=orthogonalEdgeStyle;rounded=0;orthogonalLoop=1;jettySize=auto;html=1;entryX=0;entryY=0.5;entryDx=0;entryDy=0;" parent="1" source="3sivGQ6sU_AV5dyqDpmi-71" target="3sivGQ6sU_AV5dyqDpmi-73" edge="1">
          <mxGeometry relative="1" as="geometry" />
        </mxCell>
        <mxCell id="3sivGQ6sU_AV5dyqDpmi-84" style="edgeStyle=orthogonalEdgeStyle;rounded=0;orthogonalLoop=1;jettySize=auto;html=1;entryX=0.5;entryY=1;entryDx=0;entryDy=0;" parent="1" source="3sivGQ6sU_AV5dyqDpmi-71" target="3sivGQ6sU_AV5dyqDpmi-82" edge="1">
          <mxGeometry relative="1" as="geometry" />
        </mxCell>
        <mxCell id="3sivGQ6sU_AV5dyqDpmi-123" style="edgeStyle=orthogonalEdgeStyle;rounded=0;orthogonalLoop=1;jettySize=auto;html=1;entryX=1;entryY=0.5;entryDx=0;entryDy=0;" parent="1" source="3sivGQ6sU_AV5dyqDpmi-71" target="3sivGQ6sU_AV5dyqDpmi-118" edge="1">
          <mxGeometry relative="1" as="geometry" />
        </mxCell>
        <mxCell id="3sivGQ6sU_AV5dyqDpmi-124" style="edgeStyle=orthogonalEdgeStyle;rounded=0;orthogonalLoop=1;jettySize=auto;html=1;entryX=1;entryY=0.5;entryDx=0;entryDy=0;" parent="1" source="3sivGQ6sU_AV5dyqDpmi-71" target="3sivGQ6sU_AV5dyqDpmi-119" edge="1">
          <mxGeometry relative="1" as="geometry" />
        </mxCell>
        <mxCell id="3sivGQ6sU_AV5dyqDpmi-125" style="edgeStyle=orthogonalEdgeStyle;rounded=0;orthogonalLoop=1;jettySize=auto;html=1;entryX=1;entryY=0.5;entryDx=0;entryDy=0;" parent="1" source="3sivGQ6sU_AV5dyqDpmi-71" target="3sivGQ6sU_AV5dyqDpmi-120" edge="1">
          <mxGeometry relative="1" as="geometry" />
        </mxCell>
        <mxCell id="3sivGQ6sU_AV5dyqDpmi-126" style="edgeStyle=orthogonalEdgeStyle;rounded=0;orthogonalLoop=1;jettySize=auto;html=1;entryX=1;entryY=0.5;entryDx=0;entryDy=0;" parent="1" source="3sivGQ6sU_AV5dyqDpmi-71" target="3sivGQ6sU_AV5dyqDpmi-121" edge="1">
          <mxGeometry relative="1" as="geometry" />
        </mxCell>
        <mxCell id="3sivGQ6sU_AV5dyqDpmi-127" style="edgeStyle=orthogonalEdgeStyle;rounded=0;orthogonalLoop=1;jettySize=auto;html=1;entryX=1;entryY=0.5;entryDx=0;entryDy=0;" parent="1" source="3sivGQ6sU_AV5dyqDpmi-71" target="3sivGQ6sU_AV5dyqDpmi-122" edge="1">
          <mxGeometry relative="1" as="geometry" />
        </mxCell>
        <mxCell id="3sivGQ6sU_AV5dyqDpmi-71" value="&lt;font style=&quot;font-size: 17px;&quot;&gt;venda&lt;/font&gt;" style="html=1;whiteSpace=wrap;" parent="1" vertex="1">
          <mxGeometry x="-145" y="500" width="110" height="50" as="geometry" />
        </mxCell>
        <mxCell id="3sivGQ6sU_AV5dyqDpmi-77" style="edgeStyle=orthogonalEdgeStyle;rounded=0;orthogonalLoop=1;jettySize=auto;html=1;entryX=0;entryY=0.75;entryDx=0;entryDy=0;" parent="1" source="3sivGQ6sU_AV5dyqDpmi-73" target="3sivGQ6sU_AV5dyqDpmi-1" edge="1">
          <mxGeometry relative="1" as="geometry" />
        </mxCell>
        <mxCell id="3sivGQ6sU_AV5dyqDpmi-206" style="edgeStyle=orthogonalEdgeStyle;rounded=0;orthogonalLoop=1;jettySize=auto;html=1;entryX=1;entryY=0.5;entryDx=0;entryDy=0;" parent="1" source="3sivGQ6sU_AV5dyqDpmi-73" target="3sivGQ6sU_AV5dyqDpmi-201" edge="1">
          <mxGeometry relative="1" as="geometry" />
        </mxCell>
        <mxCell id="3sivGQ6sU_AV5dyqDpmi-207" style="edgeStyle=orthogonalEdgeStyle;rounded=0;orthogonalLoop=1;jettySize=auto;html=1;entryX=1;entryY=0.5;entryDx=0;entryDy=0;" parent="1" source="3sivGQ6sU_AV5dyqDpmi-73" target="3sivGQ6sU_AV5dyqDpmi-203" edge="1">
          <mxGeometry relative="1" as="geometry" />
        </mxCell>
        <mxCell id="3sivGQ6sU_AV5dyqDpmi-208" style="edgeStyle=orthogonalEdgeStyle;rounded=0;orthogonalLoop=1;jettySize=auto;html=1;" parent="1" source="3sivGQ6sU_AV5dyqDpmi-73" target="3sivGQ6sU_AV5dyqDpmi-204" edge="1">
          <mxGeometry relative="1" as="geometry" />
        </mxCell>
        <mxCell id="3sivGQ6sU_AV5dyqDpmi-209" style="edgeStyle=orthogonalEdgeStyle;rounded=0;orthogonalLoop=1;jettySize=auto;html=1;entryX=0;entryY=0.5;entryDx=0;entryDy=0;" parent="1" source="3sivGQ6sU_AV5dyqDpmi-73" target="3sivGQ6sU_AV5dyqDpmi-202" edge="1">
          <mxGeometry relative="1" as="geometry" />
        </mxCell>
        <mxCell id="3sivGQ6sU_AV5dyqDpmi-210" style="edgeStyle=orthogonalEdgeStyle;rounded=0;orthogonalLoop=1;jettySize=auto;html=1;entryX=0;entryY=0.5;entryDx=0;entryDy=0;" parent="1" source="3sivGQ6sU_AV5dyqDpmi-73" target="3sivGQ6sU_AV5dyqDpmi-205" edge="1">
          <mxGeometry relative="1" as="geometry" />
        </mxCell>
        <mxCell id="3sivGQ6sU_AV5dyqDpmi-73" value="&lt;font style=&quot;font-size: 17px;&quot;&gt;item_venda&lt;/font&gt;" style="shape=rhombus;perimeter=rhombusPerimeter;whiteSpace=wrap;html=1;align=center;" parent="1" vertex="1">
          <mxGeometry x="360" y="495" width="120" height="60" as="geometry" />
        </mxCell>
        <mxCell id="3sivGQ6sU_AV5dyqDpmi-85" style="edgeStyle=orthogonalEdgeStyle;rounded=0;orthogonalLoop=1;jettySize=auto;html=1;entryX=0.5;entryY=1;entryDx=0;entryDy=0;" parent="1" source="3sivGQ6sU_AV5dyqDpmi-81" target="3sivGQ6sU_AV5dyqDpmi-71" edge="1">
          <mxGeometry relative="1" as="geometry" />
        </mxCell>
        <mxCell id="3sivGQ6sU_AV5dyqDpmi-81" value="&lt;font style=&quot;font-size: 19px;&quot;&gt;faz&lt;/font&gt;" style="shape=rhombus;perimeter=rhombusPerimeter;whiteSpace=wrap;html=1;align=center;" parent="1" vertex="1">
          <mxGeometry x="-150" y="620" width="120" height="60" as="geometry" />
        </mxCell>
        <mxCell id="3sivGQ6sU_AV5dyqDpmi-82" value="&lt;font style=&quot;font-size: 19px;&quot;&gt;realiza&lt;/font&gt;" style="shape=rhombus;perimeter=rhombusPerimeter;whiteSpace=wrap;html=1;align=center;" parent="1" vertex="1">
          <mxGeometry x="-150" y="340" width="120" height="60" as="geometry" />
        </mxCell>
        <mxCell id="3sivGQ6sU_AV5dyqDpmi-90" value="&lt;font style=&quot;font-size: 17px;&quot;&gt;(1..1)&lt;/font&gt;" style="text;html=1;align=center;verticalAlign=middle;whiteSpace=wrap;rounded=0;" parent="1" vertex="1">
          <mxGeometry x="-80" y="250" width="60" height="30" as="geometry" />
        </mxCell>
        <mxCell id="3sivGQ6sU_AV5dyqDpmi-91" value="&lt;font style=&quot;font-size: 17px;&quot;&gt;(1..1)&lt;/font&gt;" style="text;html=1;align=center;verticalAlign=middle;whiteSpace=wrap;rounded=0;" parent="1" vertex="1">
          <mxGeometry x="-80" y="730" width="60" height="30" as="geometry" />
        </mxCell>
        <mxCell id="3sivGQ6sU_AV5dyqDpmi-92" value="&lt;font style=&quot;font-size: 20px;&quot;&gt;(1..n)&lt;/font&gt;" style="text;html=1;align=center;verticalAlign=middle;whiteSpace=wrap;rounded=0;" parent="1" vertex="1">
          <mxGeometry x="-80" y="450" width="60" height="30" as="geometry" />
        </mxCell>
        <mxCell id="3sivGQ6sU_AV5dyqDpmi-93" value="&lt;font style=&quot;font-size: 20px;&quot;&gt;(1..n)&lt;/font&gt;" style="text;html=1;align=center;verticalAlign=middle;whiteSpace=wrap;rounded=0;" parent="1" vertex="1">
          <mxGeometry x="-70" y="560" width="60" height="30" as="geometry" />
        </mxCell>
        <mxCell id="3sivGQ6sU_AV5dyqDpmi-94" value="&lt;font style=&quot;font-size: 20px;&quot;&gt;(1..n)&lt;/font&gt;" style="text;html=1;align=center;verticalAlign=middle;whiteSpace=wrap;rounded=0;" parent="1" vertex="1">
          <mxGeometry x="-10" y="490" width="60" height="30" as="geometry" />
        </mxCell>
        <mxCell id="3sivGQ6sU_AV5dyqDpmi-95" value="&lt;font style=&quot;font-size: 20px;&quot;&gt;(1..n)&lt;/font&gt;" style="text;html=1;align=center;verticalAlign=middle;whiteSpace=wrap;rounded=0;" parent="1" vertex="1">
          <mxGeometry x="700" y="250" width="60" height="30" as="geometry" />
        </mxCell>
        <mxCell id="3sivGQ6sU_AV5dyqDpmi-96" value="&lt;font style=&quot;font-size: 17px;&quot;&gt;nome&lt;/font&gt;" style="ellipse;whiteSpace=wrap;html=1;align=center;" parent="1" vertex="1">
          <mxGeometry x="-430" y="118" width="100" height="40" as="geometry" />
        </mxCell>
        <mxCell id="3sivGQ6sU_AV5dyqDpmi-97" value="&lt;font style=&quot;font-size: 16px;&quot;&gt;telefone&lt;/font&gt;" style="ellipse;whiteSpace=wrap;html=1;align=center;" parent="1" vertex="1">
          <mxGeometry x="-430" y="173" width="100" height="40" as="geometry" />
        </mxCell>
        <mxCell id="3sivGQ6sU_AV5dyqDpmi-102" value="&lt;font style=&quot;font-size: 17px;&quot;&gt;cod_func&lt;/font&gt;" style="ellipse;whiteSpace=wrap;html=1;align=center;fontStyle=4;" parent="1" vertex="1">
          <mxGeometry x="-430" y="240" width="100" height="40" as="geometry" />
        </mxCell>
        <mxCell id="3sivGQ6sU_AV5dyqDpmi-104" value="&lt;font style=&quot;font-size: 17px;&quot;&gt;cod_for&lt;/font&gt;" style="ellipse;whiteSpace=wrap;html=1;align=center;fontStyle=4;" parent="1" vertex="1">
          <mxGeometry x="-220" y="890" width="100" height="40" as="geometry" />
        </mxCell>
        <mxCell id="3sivGQ6sU_AV5dyqDpmi-105" value="&lt;font style=&quot;font-size: 18px;&quot;&gt;nome&lt;/font&gt;" style="ellipse;whiteSpace=wrap;html=1;align=center;" parent="1" vertex="1">
          <mxGeometry x="-80" y="890" width="100" height="40" as="geometry" />
        </mxCell>
        <mxCell id="3sivGQ6sU_AV5dyqDpmi-106" value="&lt;span style=&quot;font-size: 17px;&quot;&gt;telefone&lt;/span&gt;" style="ellipse;whiteSpace=wrap;html=1;align=center;" parent="1" vertex="1">
          <mxGeometry x="70" y="890" width="100" height="40" as="geometry" />
        </mxCell>
        <mxCell id="3sivGQ6sU_AV5dyqDpmi-110" value="&lt;font style=&quot;font-size: 16px;&quot;&gt;cod_cli&lt;/font&gt;" style="ellipse;whiteSpace=wrap;html=1;align=center;fontStyle=4;" parent="1" vertex="1">
          <mxGeometry x="510" y="-160" width="100" height="40" as="geometry" />
        </mxCell>
        <mxCell id="3sivGQ6sU_AV5dyqDpmi-111" value="&lt;font style=&quot;font-size: 17px;&quot;&gt;nome&lt;/font&gt;" style="ellipse;whiteSpace=wrap;html=1;align=center;" parent="1" vertex="1">
          <mxGeometry x="510" y="-100" width="100" height="40" as="geometry" />
        </mxCell>
        <mxCell id="3sivGQ6sU_AV5dyqDpmi-112" value="&lt;font style=&quot;font-size: 17px;&quot;&gt;telefone&lt;/font&gt;" style="ellipse;whiteSpace=wrap;html=1;align=center;" parent="1" vertex="1">
          <mxGeometry x="170" y="-120" width="100" height="40" as="geometry" />
        </mxCell>
        <mxCell id="3sivGQ6sU_AV5dyqDpmi-118" value="&lt;font style=&quot;font-size: 16px;&quot;&gt;cod_venda&lt;/font&gt;" style="ellipse;whiteSpace=wrap;html=1;align=center;fontStyle=4;" parent="1" vertex="1">
          <mxGeometry x="-380" y="455" width="100" height="40" as="geometry" />
        </mxCell>
        <mxCell id="3sivGQ6sU_AV5dyqDpmi-119" value="&lt;font style=&quot;font-size: 16px;&quot;&gt;cod_func&lt;/font&gt;" style="ellipse;whiteSpace=wrap;html=1;align=center;" parent="1" vertex="1">
          <mxGeometry x="-380" y="520" width="100" height="40" as="geometry" />
        </mxCell>
        <mxCell id="3sivGQ6sU_AV5dyqDpmi-120" value="&lt;font style=&quot;font-size: 19px;&quot;&gt;cod_for&lt;/font&gt;" style="ellipse;whiteSpace=wrap;html=1;align=center;" parent="1" vertex="1">
          <mxGeometry x="-380" y="600" width="100" height="40" as="geometry" />
        </mxCell>
        <mxCell id="3sivGQ6sU_AV5dyqDpmi-121" value="&lt;font style=&quot;font-size: 17px;&quot;&gt;valor_tot&lt;/font&gt;" style="ellipse;whiteSpace=wrap;html=1;align=center;" parent="1" vertex="1">
          <mxGeometry x="-370" y="680" width="100" height="40" as="geometry" />
        </mxCell>
        <mxCell id="3sivGQ6sU_AV5dyqDpmi-122" value="&lt;font style=&quot;font-size: 17px;&quot;&gt;data_v&lt;/font&gt;" style="ellipse;whiteSpace=wrap;html=1;align=center;" parent="1" vertex="1">
          <mxGeometry x="-370" y="750" width="100" height="40" as="geometry" />
        </mxCell>
        <mxCell id="3sivGQ6sU_AV5dyqDpmi-129" value="&lt;font style=&quot;font-size: 15px;&quot;&gt;desc_ped&lt;/font&gt;" style="ellipse;whiteSpace=wrap;html=1;align=center;" parent="1" vertex="1">
          <mxGeometry x="235" y="270" width="100" height="40" as="geometry" />
        </mxCell>
        <mxCell id="3sivGQ6sU_AV5dyqDpmi-140" value="&lt;font style=&quot;font-size: 16px;&quot;&gt;data_receb&lt;/font&gt;" style="ellipse;whiteSpace=wrap;html=1;align=center;" parent="1" vertex="1">
          <mxGeometry x="240" y="320" width="100" height="40" as="geometry" />
        </mxCell>
        <mxCell id="3sivGQ6sU_AV5dyqDpmi-142" value="&lt;font style=&quot;font-size: 17px;&quot;&gt;cod_com&lt;/font&gt;" style="ellipse;whiteSpace=wrap;html=1;align=center;fontStyle=4;" parent="1" vertex="1">
          <mxGeometry x="430" y="380" width="100" height="40" as="geometry" />
        </mxCell>
        <mxCell id="3sivGQ6sU_AV5dyqDpmi-143" value="&lt;font style=&quot;font-size: 17px;&quot;&gt;cod_func&lt;/font&gt;" style="ellipse;whiteSpace=wrap;html=1;align=center;" parent="1" vertex="1">
          <mxGeometry x="235" y="370" width="100" height="40" as="geometry" />
        </mxCell>
        <mxCell id="3sivGQ6sU_AV5dyqDpmi-144" value="&lt;font style=&quot;font-size: 17px;&quot;&gt;cod_cli&lt;/font&gt;" style="ellipse;whiteSpace=wrap;html=1;align=center;" parent="1" vertex="1">
          <mxGeometry x="235" y="410" width="100" height="40" as="geometry" />
        </mxCell>
        <mxCell id="3sivGQ6sU_AV5dyqDpmi-145" value="&lt;font style=&quot;font-size: 17px;&quot;&gt;data_c&lt;/font&gt;" style="ellipse;whiteSpace=wrap;html=1;align=center;" parent="1" vertex="1">
          <mxGeometry x="445" y="280" width="100" height="40" as="geometry" />
        </mxCell>
        <mxCell id="3sivGQ6sU_AV5dyqDpmi-146" value="&lt;font style=&quot;font-size: 17px;&quot;&gt;valor_tot&lt;/font&gt;" style="ellipse;whiteSpace=wrap;html=1;align=center;" parent="1" vertex="1">
          <mxGeometry x="445" y="330" width="100" height="40" as="geometry" />
        </mxCell>
        <mxCell id="3sivGQ6sU_AV5dyqDpmi-153" value="&lt;font style=&quot;font-size: 16px;&quot;&gt;cod_i_c&lt;/font&gt;" style="ellipse;whiteSpace=wrap;html=1;align=center;fontStyle=4;" parent="1" vertex="1">
          <mxGeometry x="530" y="40" width="100" height="40" as="geometry" />
        </mxCell>
        <mxCell id="3sivGQ6sU_AV5dyqDpmi-154" value="cod_com" style="ellipse;whiteSpace=wrap;html=1;align=center;" parent="1" vertex="1">
          <mxGeometry x="610" y="70" width="100" height="40" as="geometry" />
        </mxCell>
        <mxCell id="3sivGQ6sU_AV5dyqDpmi-155" value="&lt;font style=&quot;font-size: 16px;&quot;&gt;cod_item&lt;/font&gt;" style="ellipse;whiteSpace=wrap;html=1;align=center;fontStyle=4;" parent="1" vertex="1">
          <mxGeometry x="1160" y="80" width="100" height="40" as="geometry" />
        </mxCell>
        <mxCell id="3sivGQ6sU_AV5dyqDpmi-156" value="&lt;font style=&quot;font-size: 16px;&quot;&gt;descricao&lt;/font&gt;" style="ellipse;whiteSpace=wrap;html=1;align=center;" parent="1" vertex="1">
          <mxGeometry x="1160" y="130" width="100" height="40" as="geometry" />
        </mxCell>
        <mxCell id="3sivGQ6sU_AV5dyqDpmi-157" value="&lt;font style=&quot;font-size: 16px;&quot;&gt;qtd_estoque&lt;/font&gt;" style="ellipse;whiteSpace=wrap;html=1;align=center;" parent="1" vertex="1">
          <mxGeometry x="1160" y="180" width="100" height="40" as="geometry" />
        </mxCell>
        <mxCell id="3sivGQ6sU_AV5dyqDpmi-158" value="&lt;font style=&quot;font-size: 17px;&quot;&gt;valor_u&lt;/font&gt;" style="ellipse;whiteSpace=wrap;html=1;align=center;" parent="1" vertex="1">
          <mxGeometry x="1160" y="240" width="100" height="40" as="geometry" />
        </mxCell>
        <mxCell id="3sivGQ6sU_AV5dyqDpmi-161" style="edgeStyle=orthogonalEdgeStyle;rounded=0;orthogonalLoop=1;jettySize=auto;html=1;entryX=0;entryY=0.856;entryDx=0;entryDy=0;entryPerimeter=0;" parent="1" source="3sivGQ6sU_AV5dyqDpmi-1" target="3sivGQ6sU_AV5dyqDpmi-156" edge="1">
          <mxGeometry relative="1" as="geometry" />
        </mxCell>
        <mxCell id="3sivGQ6sU_AV5dyqDpmi-164" value="&lt;font style=&quot;font-size: 17px;&quot;&gt;titulo&lt;/font&gt;" style="ellipse;whiteSpace=wrap;html=1;align=center;" parent="1" vertex="1">
          <mxGeometry x="770" y="620" width="100" height="40" as="geometry" />
        </mxCell>
        <mxCell id="3sivGQ6sU_AV5dyqDpmi-166" value="&lt;font style=&quot;font-size: 16px;&quot;&gt;localizacao&lt;/font&gt;" style="ellipse;whiteSpace=wrap;html=1;align=center;" parent="1" vertex="1">
          <mxGeometry x="780" y="690" width="100" height="40" as="geometry" />
        </mxCell>
        <mxCell id="3sivGQ6sU_AV5dyqDpmi-167" value="&lt;font style=&quot;font-size: 18px;&quot;&gt;autor&lt;/font&gt;" style="ellipse;whiteSpace=wrap;html=1;align=center;" parent="1" vertex="1">
          <mxGeometry x="780" y="760" width="100" height="40" as="geometry" />
        </mxCell>
        <mxCell id="3sivGQ6sU_AV5dyqDpmi-170" value="&lt;font style=&quot;font-size: 17px;&quot;&gt;ano&lt;/font&gt;" style="ellipse;whiteSpace=wrap;html=1;align=center;" parent="1" vertex="1">
          <mxGeometry x="790" y="820" width="100" height="40" as="geometry" />
        </mxCell>
        <mxCell id="3sivGQ6sU_AV5dyqDpmi-173" value="&lt;font style=&quot;font-size: 20px;&quot;&gt;area_&lt;font style=&quot;font-size: 20px;&quot;&gt;ensino&lt;/font&gt;&lt;/font&gt;" style="ellipse;whiteSpace=wrap;html=1;align=center;" parent="1" vertex="1">
          <mxGeometry x="940" y="790" width="170" height="70" as="geometry" />
        </mxCell>
        <mxCell id="3sivGQ6sU_AV5dyqDpmi-174" style="edgeStyle=orthogonalEdgeStyle;rounded=0;orthogonalLoop=1;jettySize=auto;html=1;entryX=0.241;entryY=0.032;entryDx=0;entryDy=0;entryPerimeter=0;" parent="1" source="3sivGQ6sU_AV5dyqDpmi-51" target="3sivGQ6sU_AV5dyqDpmi-173" edge="1">
          <mxGeometry relative="1" as="geometry" />
        </mxCell>
        <mxCell id="3sivGQ6sU_AV5dyqDpmi-179" value="cod_item" style="ellipse;whiteSpace=wrap;html=1;align=center;" parent="1" vertex="1">
          <mxGeometry x="610" y="-80" width="100" height="40" as="geometry" />
        </mxCell>
        <mxCell id="3sivGQ6sU_AV5dyqDpmi-180" value="&lt;font style=&quot;font-size: 16px;&quot;&gt;qtd&lt;/font&gt;" style="ellipse;whiteSpace=wrap;html=1;align=center;" parent="1" vertex="1">
          <mxGeometry x="550" y="-20" width="100" height="40" as="geometry" />
        </mxCell>
        <mxCell id="3sivGQ6sU_AV5dyqDpmi-181" value="valor_p" style="ellipse;whiteSpace=wrap;html=1;align=center;" parent="1" vertex="1">
          <mxGeometry x="630" y="10" width="100" height="40" as="geometry" />
        </mxCell>
        <mxCell id="3sivGQ6sU_AV5dyqDpmi-183" style="edgeStyle=orthogonalEdgeStyle;rounded=0;orthogonalLoop=1;jettySize=auto;html=1;entryX=0.63;entryY=1.031;entryDx=0;entryDy=0;entryPerimeter=0;" parent="1" source="3sivGQ6sU_AV5dyqDpmi-29" target="3sivGQ6sU_AV5dyqDpmi-180" edge="1">
          <mxGeometry relative="1" as="geometry" />
        </mxCell>
        <mxCell id="3sivGQ6sU_AV5dyqDpmi-201" value="&lt;font style=&quot;font-size: 16px;&quot;&gt;cod_i_v&lt;/font&gt;" style="ellipse;whiteSpace=wrap;html=1;align=center;fontStyle=4;" parent="1" vertex="1">
          <mxGeometry x="290" y="650" width="100" height="40" as="geometry" />
        </mxCell>
        <mxCell id="3sivGQ6sU_AV5dyqDpmi-202" value="&lt;font style=&quot;font-size: 16px;&quot;&gt;cod_item&lt;/font&gt;" style="ellipse;whiteSpace=wrap;html=1;align=center;" parent="1" vertex="1">
          <mxGeometry x="474" y="680" width="100" height="40" as="geometry" />
        </mxCell>
        <mxCell id="3sivGQ6sU_AV5dyqDpmi-203" value="&lt;font style=&quot;font-size: 16px;&quot;&gt;cod_venda&lt;/font&gt;" style="ellipse;whiteSpace=wrap;html=1;align=center;" parent="1" vertex="1">
          <mxGeometry x="290" y="720" width="100" height="40" as="geometry" />
        </mxCell>
        <mxCell id="3sivGQ6sU_AV5dyqDpmi-204" value="&lt;font style=&quot;font-size: 17px;&quot;&gt;qtd&lt;/font&gt;" style="ellipse;whiteSpace=wrap;html=1;align=center;" parent="1" vertex="1">
          <mxGeometry x="470" y="630" width="100" height="40" as="geometry" />
        </mxCell>
        <mxCell id="3sivGQ6sU_AV5dyqDpmi-205" value="&lt;font style=&quot;font-size: 17px;&quot;&gt;valor_p&lt;/font&gt;" style="ellipse;whiteSpace=wrap;html=1;align=center;" parent="1" vertex="1">
          <mxGeometry x="470" y="740" width="100" height="40" as="geometry" />
        </mxCell>
        <mxCell id="zJOguSmQNDVReDXdNDli-6" value="&lt;span style=&quot;font-size: 15px;&quot;&gt;status_com&lt;/span&gt;" style="ellipse;whiteSpace=wrap;html=1;align=center;" parent="1" vertex="1">
          <mxGeometry x="440" y="420" width="110" height="50" as="geometry" />
        </mxCell>
      </root>
    </mxGraphModel>
  </diagram>
</mxfile>
